<svg id="Layer_1" data-name="Layer 1" xmlns="http://www.w3.org/2000/svg" viewBox="0 0 532.33 131.58"><defs><style>.cls-1{fill:#5d5f61;}.cls-2,.cls-3{fill:#b1d238;}.cls-3{fill-rule:evenodd;}</style></defs><title>hv-logo-20210113-02</title><path class="cls-1" d="M118.09,6.27a3.06,3.06,0,0,1,2.25.92,3,3,0,0,1,.93,2.16V35.12h26.18V9.35a3,3,0,0,1,.93-2.16,3.08,3.08,0,0,1,2.25-.92h22.6a3.08,3.08,0,0,1,2.25.92,3,3,0,0,1,.93,2.16V83.68a2.93,2.93,0,0,1-.93,2.16,3,3,0,0,1-2.25.93h-22.6a3,3,0,0,1-2.25-.93,2.93,2.93,0,0,1-.93-2.16V56.27H121.27V83.68a2.93,2.93,0,0,1-.93,2.16,3,3,0,0,1-2.25.93H95.5a3.16,3.16,0,0,1-3.08-3.09V9.35A3.14,3.14,0,0,1,95.5,6.27Z"/><path class="cls-1" d="M183.7,86.77a2.23,2.23,0,0,1-1.85-.93,3.39,3.39,0,0,1-.72-2.16V29.27a3.43,3.43,0,0,1,.72-2.16,2.25,2.25,0,0,1,1.85-.92h14.48a4,4,0,0,1,1.28.26,8.57,8.57,0,0,1,1.49.66,5.21,5.21,0,0,1,1.23,1,1.74,1.74,0,0,1,.51,1.18V83.68a3.39,3.39,0,0,1-.72,2.16,2.13,2.13,0,0,1-1.75.93Zm1.08-81a11.09,11.09,0,0,1,14.32,0,9.74,9.74,0,0,1,2.57,7.13,9.76,9.76,0,0,1-2.57,7.14,11.09,11.09,0,0,1-14.32,0,9.63,9.63,0,0,1-2.62-7.14A9.61,9.61,0,0,1,184.78,5.81Z"/><path class="cls-1" d="M226.51,6.27a2.17,2.17,0,0,1,1.75.92A3.42,3.42,0,0,1,229,9.35V83.68a3.38,3.38,0,0,1-.71,2.16,2.16,2.16,0,0,1-1.75.93H210a2.23,2.23,0,0,1-1.85-.93,3.45,3.45,0,0,1-.72-2.16V9.35a3.49,3.49,0,0,1,.72-2.16A2.25,2.25,0,0,1,210,6.27Z"/><path class="cls-1" d="M254,6.27a2.16,2.16,0,0,1,1.74.92,3.43,3.43,0,0,1,.72,2.16V83.68a3.39,3.39,0,0,1-.72,2.16,2.14,2.14,0,0,1-1.74.93H237.5a2.23,2.23,0,0,1-1.85-.93,3.39,3.39,0,0,1-.72-2.16V9.35a3.43,3.43,0,0,1,.72-2.16,2.25,2.25,0,0,1,1.85-.92Z"/><path class="cls-2" d="M353.62,6.17a3,3,0,0,1,2.87,4.51L319.12,86.25a3.41,3.41,0,0,1-1.29,1.23,3.1,3.1,0,0,1-1.59.52H302.79a3.26,3.26,0,0,1-1.64-.57,2.92,2.92,0,0,1-1.23-1.28L262.86,10.58A2.9,2.9,0,0,1,263,7.5a3.14,3.14,0,0,1,2.77-1.33H289a3.11,3.11,0,0,1,1.64.51A3.3,3.3,0,0,1,291.91,8L310.5,47.85,328.36,8a3,3,0,0,1,1.18-1.29,3.17,3.17,0,0,1,1.69-.56Z"/><path class="cls-2" d="M364.19,86.77a2.24,2.24,0,0,1-1.85-.93,3.45,3.45,0,0,1-.72-2.16V29.27a3.49,3.49,0,0,1,.72-2.16,2.26,2.26,0,0,1,1.85-.92h14.48a4,4,0,0,1,1.28.26,8.24,8.24,0,0,1,1.49.66,5,5,0,0,1,1.23,1,1.75,1.75,0,0,1,.52,1.18V83.68a3.45,3.45,0,0,1-.72,2.16,2.14,2.14,0,0,1-1.75.93Zm1.07-81a11.11,11.11,0,0,1,14.33,0,9.74,9.74,0,0,1,2.57,7.13,9.76,9.76,0,0,1-2.57,7.14,11.11,11.11,0,0,1-14.33,0,9.66,9.66,0,0,1-2.61-7.14A9.64,9.64,0,0,1,365.26,5.81Z"/><path class="cls-2" d="M420.46,69.57a2.19,2.19,0,0,0,1.84,1,13.91,13.91,0,0,0,4.62-.72,33.35,33.35,0,0,0,3.19-1.23,2.61,2.61,0,0,1,2.82.21,3.06,3.06,0,0,1,1.28,2.67V83.68a3.33,3.33,0,0,1-.51,1.7,2.18,2.18,0,0,1-1.23,1.08,13.56,13.56,0,0,1-2.62.92c-1.06.27-2.31.58-3.74.92-1.58.35-3.05.62-4.42.83a28.43,28.43,0,0,1-4.11.31q-11,0-16-4.21t-5-14.18V44.87h-8.32a2.81,2.81,0,0,1-2.05-.92,3.06,3.06,0,0,1-.93-2.26v-11a3.09,3.09,0,0,1,3-3.09h8.32V14.89a3.1,3.1,0,0,1,.77-2.05,2.65,2.65,0,0,1,1.79-1l17.15-3a2.56,2.56,0,0,1,2.46.66,3.21,3.21,0,0,1,1,2.42l-.1,15.7h11.49a2.92,2.92,0,0,1,2.12.88,3,3,0,0,1,.86,2.21v11a3.2,3.2,0,0,1-.86,2.26,2.8,2.8,0,0,1-2.12.92H419.74V66.64A4.92,4.92,0,0,0,420.46,69.57Z"/><path class="cls-2" d="M481,83.68a10.36,10.36,0,0,1-1.07-1.12,57.51,57.51,0,0,1-9.86,3.9A37.89,37.89,0,0,1,459.37,88q-10.68,0-16.27-5t-5.6-13.56q0-9.13,8.52-15a34.23,34.23,0,0,1,9.5-4.26A37.07,37.07,0,0,1,467.28,49l8.62.41a5.75,5.75,0,0,0-2.16-4.72,9.17,9.17,0,0,0-5.64-1.54,31.54,31.54,0,0,0-5.13.41,23.87,23.87,0,0,0-5,1.44c-1.57.61-3,1.2-4.31,1.74s-2.53,1.1-3.7,1.64a2.78,2.78,0,0,1-2.41.16,2.94,2.94,0,0,1-1.8-1.7l-3.89-8.93a3,3,0,0,1-.06-1.85,3.42,3.42,0,0,1,.77-1.54,18.35,18.35,0,0,1,3.55-2.3,62.07,62.07,0,0,1,6.31-2.83,52.74,52.74,0,0,1,8.11-2.26,46.4,46.4,0,0,1,8.93-.82,54.31,54.31,0,0,1,13.14,1.39A22.57,22.57,0,0,1,491.71,32a17.72,17.72,0,0,1,5.34,7.75,33.87,33.87,0,0,1,1.75,11.55v21l.72.62.71.51a3.11,3.11,0,0,1,1.91.57,3,3,0,0,1,1.18,3.13,2.92,2.92,0,0,1-1.14,1.64l-10.88,9a13.6,13.6,0,0,1-9-3.08C481.79,84.4,481.36,84,481,83.68Zm-6.31-13.81,1.54-.66V64.38h-.31q-15.7,0-15.71,5c0,1.72,1.75,2.57,5.24,2.57a20,20,0,0,0,7.39-1.33C473.51,70.37,474.12,70.12,474.67,69.87Z"/><path class="cls-2" d="M526.11,6.27a2.16,2.16,0,0,1,1.74.92,3.43,3.43,0,0,1,.72,2.16V83.68a3.39,3.39,0,0,1-.72,2.16,2.14,2.14,0,0,1-1.74.93H509.57a2.24,2.24,0,0,1-1.84-.93,3.39,3.39,0,0,1-.72-2.16V9.35a3.43,3.43,0,0,1,.72-2.16,2.26,2.26,0,0,1,1.84-.92Z"/><path class="cls-2" d="M115.71,64.1c-3.65-1.57-5.21-3.4-5.76-5a32,32,0,0,1,6-9.45,15.41,15.41,0,0,1,5.56-3.73,36,36,0,0,1,6.23-2,32.63,32.63,0,0,1,7.88-.65c1,0,2.76.06,4.88.15a41.26,41.26,0,0,0,7-.08A74,74,0,0,0,156.34,42a82.41,82.41,0,0,1-8.83.26,44.93,44.93,0,0,1-6.83-.61c-2.13-.29-4-.46-5-.49-1.93,0-13.18-1-21.75,6.37A30.88,30.88,0,0,0,109,53.78,5.49,5.49,0,0,1,107.26,49c.56-3.75,4.72-14.11,18.18-15.85s25.7,4,32.38,4.46,10.49-2.54,10.49-2.54S149,72.85,115.71,64.1Z"/><path class="cls-3" d="M50.84,85H42.35c-.6,0-1.2,0-1.79,0a3,3,0,0,1-2.79-1.4,26,26,0,0,1-3.69-6.46,1,1,0,0,0-1.43-.68,16.71,16.71,0,0,1-3.37.56,21.77,21.77,0,0,1-10.93-2.89A28.72,28.72,0,0,1,7.92,65.48,22.33,22.33,0,0,1,3.86,50.71c.05-.63,0-1.27,0-1.9l.22,0c.4.74.81,1.47,1.19,2.22a22.88,22.88,0,0,0,5.19,7.32,18.41,18.41,0,0,0,5.58,3.34c.25.09.5.25.7,0a.61.61,0,0,0-.09-.79,5.78,5.78,0,0,0-.61-.6c-4.42-3.94-7.89-8.52-9.39-14.35-1.39-5.38-.26-10.37,2.6-15,.56-.91,1.15-1.79,1.74-2.68.14-.21.28-.5.6-.37s.16.41.16.67c0,2.8-.07,5.65,1.62,8.09a9.52,9.52,0,0,0,5.72,4c.24.06.55.25.71,0s0-.56-.2-.78c-.53-.65-1.09-1.26-1.6-1.92a14.13,14.13,0,0,1-3-9,15.06,15.06,0,0,1,3.85-9.46A22.5,22.5,0,0,1,31.3,12a.68.68,0,0,1,.8.17,13.69,13.69,0,0,0-3,4.4,8.23,8.23,0,0,0,.3,6.78c.09.19.15.53.44.44s.12-.36.12-.55a17.21,17.21,0,0,1,.25-3.72,11.79,11.79,0,0,1,4.42-6.32A111.17,111.17,0,0,1,44,6.72l1.73-1.15A12.32,12.32,0,0,1,46.17,8a16.77,16.77,0,0,0,4.71,8.85c3.44,3.4,2.62,8-1.75,10.15a1.69,1.69,0,0,0-1,.95,1.6,1.6,0,0,0,1.39-.12,8.68,8.68,0,0,0,5.47-6,6.33,6.33,0,0,0-.46-4.17c-.07-.15-.26-.34-.12-.5s.37-.05.57,0a20.62,20.62,0,0,1,9,7.33c1.59,2.42,1.35,5,.57,7.64-1.21,4.06-4.15,6.53-7.79,8.32a20.71,20.71,0,0,1-1.94.79c-.29.1-.56.18-.48.55s.38.27.64.25A14.11,14.11,0,0,0,67.14,34c.39-.76.75-1.53,1.15-2.36A20.25,20.25,0,0,1,71,39.69c.79,7.34-3.21,12.07-8.73,16a14.71,14.71,0,0,1-3.11,1.59c-.26.1-.58.21-.47.58s.41.23.66.21a15.22,15.22,0,0,0,9.56-4.39,27.7,27.7,0,0,0,3.7-4.1c.12-.15.18-.45.44-.36s.17.36.19.55A27.68,27.68,0,0,1,73,56.41c-1.57,11.17-11.36,19.42-21.68,22a12.69,12.69,0,0,1-14.38-6.94L36.71,71c2,.37,3.86.83,5.77,1.07A25,25,0,0,0,55,70.62a23.83,23.83,0,0,0,5.78-3.15,5.89,5.89,0,0,0,.55-.44c.16-.17.32-.36.15-.62a.44.44,0,0,0-.62-.13L59.26,67a30.6,30.6,0,0,1-13.62,3,35.42,35.42,0,0,1-8.93-1.59A2.77,2.77,0,0,1,35,66.59a41.53,41.53,0,0,1-2-8.35c-.09-.54.08-.77.67-.67a32,32,0,0,0,10,.27A24.35,24.35,0,0,0,54,53.71c.76-.5,1.49-1,2.22-1.58a8,8,0,0,0,.75-.67.58.58,0,0,0,.12-.78c-.22-.31-.47-.08-.69,0-1.71.82-3.38,1.69-5.14,2.4a29.72,29.72,0,0,1-14.08,2.14A38.66,38.66,0,0,1,33,54.77a1.33,1.33,0,0,1-1.14-1.23A51.18,51.18,0,0,1,31.93,43c.14-1.1.28-1.19,1.41-1.18a20.8,20.8,0,0,0,5.1-.53,26.08,26.08,0,0,0,8.84-4.43c.22-.16.44-.37.26-.65s-.48-.15-.72,0c-1.68.67-3.33,1.42-5,2a26.36,26.36,0,0,1-6.25,1.49,5.52,5.52,0,0,1-1.85-.21c-.71-.17-.92-.67-.79-1.37A46.53,46.53,0,0,1,35,31c.53-1.51,1.29-2.94,1.69-4.5,0-.15.07-.3.12-.45s.08-.39-.11-.49-.37.11-.47.28c-.56,1-1.11,1.94-1.66,2.91a34.17,34.17,0,0,0-3.79,9.14c-.16.68-.41.62-.91.39a9.06,9.06,0,0,1-5.09-6.58c-.08-.36-.15-.72-.25-1.06s0-.52-.4-.47-.27.33-.26.55a12.79,12.79,0,0,0,.84,4.41A11.06,11.06,0,0,0,29,40.24a1.48,1.48,0,0,1,.81,2,35,35,0,0,0-.9,8.89c0,.8.13,1.6.16,2.4,0,1-.14,1.24-1.17,1.27a12.29,12.29,0,0,1-6.52-2,20.53,20.53,0,0,1-5.82-4.88c-.24-.28-.5-.81-.9-.56s-.12.76.05,1.12c2.41,4.83,6,8.14,11.54,9a8.49,8.49,0,0,0,2.31.17,1,1,0,0,1,1.11,1,28.28,28.28,0,0,0,2.68,9.35c.32.7.15.9-.77,1.09a22.47,22.47,0,0,1-11-.68c-.8-.25-1.59-.49-2.38-.7-.29-.06-.67-.19-.84.19s.21.51.47.66A23,23,0,0,0,28.2,71.56a16.5,16.5,0,0,0,4-.37c1.25-.24,1.36-.18,2,.93a22.63,22.63,0,0,0,8.11,8.35,43.22,43.22,0,0,0,7.8,4C50.34,84.58,50.65,84.61,50.84,85Z"/><rect class="cls-2" x="92.42" y="97.17" width="436.15" height="1.97"/><path class="cls-1" d="M13.52,125.52a8.51,8.51,0,0,1-3.39-.67A8.78,8.78,0,0,1,7.35,123a8.68,8.68,0,0,1-1.88-2.75,8.59,8.59,0,0,1,0-6.7,8.75,8.75,0,0,1,1.88-2.74A8.62,8.62,0,0,1,10.13,109a8.51,8.51,0,0,1,3.39-.67,9.78,9.78,0,0,1,2.18.24,7.61,7.61,0,0,1,1.94.72,1.21,1.21,0,0,1,.54.51,1.31,1.31,0,0,1,.18.66,1.6,1.6,0,0,1-.38,1,1.25,1.25,0,0,1-1,.45,1.41,1.41,0,0,1-.4-.05,1.64,1.64,0,0,1-.39-.14,6.73,6.73,0,0,0-1.27-.41,7.2,7.2,0,0,0-1.42-.14,5.33,5.33,0,0,0-2.83.78,5.81,5.81,0,0,0-2,2.08,5.9,5.9,0,0,0,0,5.76,5.84,5.84,0,0,0,2,2.09,5.33,5.33,0,0,0,2.83.78,9.22,9.22,0,0,0,1.58-.15,5.88,5.88,0,0,0,1.42-.38l-.22.72v-4.09l.41.36H14.05a1.45,1.45,0,0,1-1-.41,1.38,1.38,0,0,1-.42-1,1.36,1.36,0,0,1,.42-1,1.45,1.45,0,0,1,1-.41H18a1.4,1.4,0,0,1,1,.42,1.44,1.44,0,0,1,.4,1v5.08a1.32,1.32,0,0,1-.22.79,2.22,2.22,0,0,1-.52.5,10.63,10.63,0,0,1-2.4,1.07A9.57,9.57,0,0,1,13.52,125.52Z"/><path class="cls-1" d="M32.39,108.46a1.41,1.41,0,0,1,1,.41,1.43,1.43,0,0,1,.44,1.07,1.72,1.72,0,0,1-.06.44,1.58,1.58,0,0,1-.2.44l-5.43,7.78.43-1.65v6.87a1.4,1.4,0,0,1-.42,1,1.34,1.34,0,0,1-1,.42,1.43,1.43,0,0,1-1.44-1.46v-6.68l.19.77L20.75,111a2,2,0,0,1-.33-.6,1.53,1.53,0,0,1-.1-.52,1.28,1.28,0,0,1,.51-1.06,1.59,1.59,0,0,1,1-.4,1.47,1.47,0,0,1,1.18.66l4.59,6.35-.67-.1,4.24-6.2A1.42,1.42,0,0,1,32.39,108.46Z"/><path class="cls-1" d="M51.39,116.9a9.19,9.19,0,0,1-.6,3.35A8.5,8.5,0,0,1,49.1,123a7.73,7.73,0,0,1-2.58,1.85,7.87,7.87,0,0,1-3.27.67,7.75,7.75,0,0,1-3.25-.67A7.93,7.93,0,0,1,37.42,123a8.66,8.66,0,0,1-1.68-2.75,9.65,9.65,0,0,1,0-6.7,8.72,8.72,0,0,1,1.68-2.74,7.81,7.81,0,0,1,5.83-2.52,7.87,7.87,0,0,1,3.27.67,7.59,7.59,0,0,1,2.58,1.85,8.57,8.57,0,0,1,1.69,2.74A9.26,9.26,0,0,1,51.39,116.9Zm-3.11,0a6.44,6.44,0,0,0-.65-2.9,5.27,5.27,0,0,0-1.77-2.07,4.81,4.81,0,0,0-5.22,0,5.26,5.26,0,0,0-1.76,2,7.06,7.06,0,0,0,0,5.83,5.25,5.25,0,0,0,1.76,2.07,4.81,4.81,0,0,0,5.22,0,5.27,5.27,0,0,0,1.77-2.07A6.48,6.48,0,0,0,48.28,116.9Zm-5-9.28a1.07,1.07,0,0,1-.73-.24.8.8,0,0,1-.27-.62.64.64,0,0,1,.08-.33,1.34,1.34,0,0,1,.25-.32l2.06-1.82a3,3,0,0,1,.56-.37,1.35,1.35,0,0,1,.61-.16,1.51,1.51,0,0,1,.84.31,1,1,0,0,1,.43.87,1.27,1.27,0,0,1-.23.7,1.69,1.69,0,0,1-.66.57l-2.39,1.26a.6.6,0,0,1-.29.12Z"/><path class="cls-1" d="M62,125.52a8.59,8.59,0,0,1-3.4-.67,8.77,8.77,0,0,1-4.65-4.6,8.48,8.48,0,0,1,0-6.7,8.75,8.75,0,0,1,1.88-2.74A8.68,8.68,0,0,1,62,108.29a9.78,9.78,0,0,1,2.18.24,7.61,7.61,0,0,1,1.94.72,1.21,1.21,0,0,1,.54.51,1.31,1.31,0,0,1,.18.66,1.56,1.56,0,0,1-.39,1,1.22,1.22,0,0,1-1,.45,1.31,1.31,0,0,1-.39-.05,1.9,1.9,0,0,1-.4-.14,6.5,6.5,0,0,0-1.27-.41,7,7,0,0,0-1.41-.14,5.37,5.37,0,0,0-2.84.78,5.78,5.78,0,0,0-2,2.08,5.9,5.9,0,0,0,0,5.76,5.81,5.81,0,0,0,2,2.09,5.37,5.37,0,0,0,2.84.78,9.22,9.22,0,0,0,1.58-.15,5.66,5.66,0,0,0,1.41-.38l-.21.72v-4.09l.4.36H62.57a1.43,1.43,0,0,1-1-.41,1.38,1.38,0,0,1-.42-1,1.36,1.36,0,0,1,.42-1,1.43,1.43,0,0,1,1-.41h3.92a1.36,1.36,0,0,1,1,.42,1.45,1.45,0,0,1,.41,1v5.08a1.32,1.32,0,0,1-.23.79,2,2,0,0,1-.51.5,10.71,10.71,0,0,1-2.41,1.07A9.5,9.5,0,0,1,62,125.52Z"/><path class="cls-1" d="M80.9,108.46a1.42,1.42,0,0,1,1,.41,1.43,1.43,0,0,1,.44,1.07,1.72,1.72,0,0,1-.06.44,1.37,1.37,0,0,1-.21.44l-5.43,7.78.43-1.65v6.87a1.4,1.4,0,0,1-.42,1,1.33,1.33,0,0,1-1,.42,1.38,1.38,0,0,1-1-.42,1.4,1.4,0,0,1-.42-1v-6.68l.19.77L69.27,111a2.32,2.32,0,0,1-.34-.6,1.78,1.78,0,0,1-.09-.52,1.3,1.3,0,0,1,.5-1.06,1.64,1.64,0,0,1,1-.4,1.44,1.44,0,0,1,1.17.66l4.6,6.35-.67-.1,4.24-6.2A1.42,1.42,0,0,1,80.9,108.46Z"/><path class="cls-1" d="M97.2,108.53a1.19,1.19,0,0,1,.93.38,1.35,1.35,0,0,1,.36,1v13.95A1.42,1.42,0,0,1,97,125.28a1.82,1.82,0,0,1-.63-.11,1,1,0,0,1-.49-.3L86.5,112.93l.63-.38v11.39a1.34,1.34,0,0,1-.38,1,1.3,1.3,0,0,1-1,.38,1.24,1.24,0,0,1-.93-.38,1.36,1.36,0,0,1-.36-1V110a1.39,1.39,0,0,1,.42-1,1.42,1.42,0,0,1,1-.42,2,2,0,0,1,.7.13,1,1,0,0,1,.52.39l9.12,11.64-.4.28v-11.1a1.34,1.34,0,0,1,.35-1A1.24,1.24,0,0,1,97.2,108.53Z"/><path class="cls-1" d="M117.5,116.9a9.19,9.19,0,0,1-.6,3.35,8.5,8.5,0,0,1-1.69,2.75,7.81,7.81,0,0,1-5.85,2.52,7.72,7.72,0,0,1-3.25-.67,7.93,7.93,0,0,1-2.58-1.85,8.68,8.68,0,0,1-1.69-2.75,9.81,9.81,0,0,1,0-6.7,8.75,8.75,0,0,1,1.69-2.74,7.81,7.81,0,0,1,5.83-2.52,7.87,7.87,0,0,1,3.27.67,7.69,7.69,0,0,1,2.58,1.85,8.57,8.57,0,0,1,1.69,2.74A9.26,9.26,0,0,1,117.5,116.9Zm-3.11,0a6.44,6.44,0,0,0-.65-2.9,5.27,5.27,0,0,0-1.77-2.07,4.81,4.81,0,0,0-5.22,0,5.26,5.26,0,0,0-1.76,2,7.06,7.06,0,0,0,0,5.83,5.25,5.25,0,0,0,1.76,2.07,4.81,4.81,0,0,0,5.22,0,5.27,5.27,0,0,0,1.77-2.07A6.48,6.48,0,0,0,114.39,116.9ZM107,107.09a1.84,1.84,0,0,1-1.09-.26,1.12,1.12,0,0,1-.35-.94v-.43a1,1,0,0,1,.37-.94,1.93,1.93,0,0,1,1.09-.25,1.88,1.88,0,0,1,1.14.26,1.12,1.12,0,0,1,.35.93v.43a1.08,1.08,0,0,1-.36,1A2,2,0,0,1,107,107.09Zm4.76,0a1.86,1.86,0,0,1-1.09-.26,1.12,1.12,0,0,1-.35-.94v-.43a1.06,1.06,0,0,1,.36-.94,1.87,1.87,0,0,1,1.08-.25,1.93,1.93,0,0,1,1.16.26,1.12,1.12,0,0,1,.35.93v.43a1.08,1.08,0,0,1-.36,1A2,2,0,0,1,111.73,107.09Z"/><path class="cls-1" d="M132.48,108.48a1.51,1.51,0,0,1,1,.39,1.29,1.29,0,0,1,.45,1,1.57,1.57,0,0,1-.15.64l-5.91,13.84a1.46,1.46,0,0,1-.61.7,1.5,1.5,0,0,1-.8.23,1.49,1.49,0,0,1-.74-.25,1.39,1.39,0,0,1-.55-.66l-5.92-13.88a1.14,1.14,0,0,1-.09-.3,1.53,1.53,0,0,1,0-.3,1.22,1.22,0,0,1,.51-1.06,1.59,1.59,0,0,1,.95-.37,1.37,1.37,0,0,1,1.32.93l5.24,12.32-.84,0,4.82-12.35A1.36,1.36,0,0,1,132.48,108.48Z"/><path class="cls-1" d="M137.94,108.53h8a1.48,1.48,0,0,1,1,.39,1.33,1.33,0,0,1,.42,1,1.24,1.24,0,0,1-.42,1,1.51,1.51,0,0,1-1,.37h-6.7l.21-.41v4.67l-.19-.19h5.6a1.46,1.46,0,0,1,1,.39,1.36,1.36,0,0,1,.42,1,1.24,1.24,0,0,1-.42,1,1.49,1.49,0,0,1-1,.37h-5.53l.12-.19v4.83l-.19-.21H146a1.42,1.42,0,0,1,1,.42,1.33,1.33,0,0,1,.42,1,1.27,1.27,0,0,1-.42,1,1.51,1.51,0,0,1-1,.38h-8a1.43,1.43,0,0,1-1.46-1.46V110a1.39,1.39,0,0,1,.42-1A1.4,1.4,0,0,1,137.94,108.53Zm4.09-.91a1.07,1.07,0,0,1-.73-.24.8.8,0,0,1-.27-.62.64.64,0,0,1,.08-.33,1.65,1.65,0,0,1,.25-.32l2.06-1.82a3.39,3.39,0,0,1,.56-.37,1.39,1.39,0,0,1,.61-.16,1.51,1.51,0,0,1,.84.31,1,1,0,0,1,.43.87,1.19,1.19,0,0,1-.23.7,1.73,1.73,0,0,1-.65.57l-2.4,1.26a.57.57,0,0,1-.28.12Z"/><path class="cls-1" d="M162.88,108.53a1.2,1.2,0,0,1,.93.38,1.35,1.35,0,0,1,.36,1v13.95a1.43,1.43,0,0,1-1.46,1.46,1.74,1.74,0,0,1-.63-.11,1,1,0,0,1-.49-.3l-9.41-11.94.62-.38v11.39a1.33,1.33,0,0,1-.37,1,1.31,1.31,0,0,1-1,.38,1.24,1.24,0,0,1-.93-.38,1.36,1.36,0,0,1-.36-1V110a1.39,1.39,0,0,1,.42-1,1.4,1.4,0,0,1,1-.42,2,2,0,0,1,.69.13,1,1,0,0,1,.53.39L162,120.69l-.41.28v-11.1a1.35,1.35,0,0,1,.36-1A1.24,1.24,0,0,1,162.88,108.53Z"/><path class="cls-1" d="M178.44,108.46a1.45,1.45,0,0,1,1.43,1.48,1.72,1.72,0,0,1-.06.44,1.34,1.34,0,0,1-.2.44l-5.43,7.78.43-1.65v6.87a1.4,1.4,0,0,1-.42,1,1.33,1.33,0,0,1-1,.42,1.43,1.43,0,0,1-1.44-1.46v-6.68l.19.77L166.8,111a2,2,0,0,1-.33-.6,1.53,1.53,0,0,1-.1-.52,1.28,1.28,0,0,1,.51-1.06,1.6,1.6,0,0,1,1-.4,1.47,1.47,0,0,1,1.17.66l4.59,6.35-.67-.1,4.24-6.2A1.42,1.42,0,0,1,178.44,108.46Z"/><path class="cls-1" d="M183.49,108.53h8a1.48,1.48,0,0,1,1.05.39,1.32,1.32,0,0,1,.41,1,1.23,1.23,0,0,1-.41,1,1.51,1.51,0,0,1-1.05.37h-6.7l.22-.41v4.67l-.19-.19h5.6a1.48,1.48,0,0,1,1,.39,1.36,1.36,0,0,1,.42,1,1.24,1.24,0,0,1-.42,1,1.51,1.51,0,0,1-1,.37H184.9l.12-.19v4.83l-.19-.21h6.67a1.42,1.42,0,0,1,1.05.42,1.32,1.32,0,0,1,.41,1,1.26,1.26,0,0,1-.41,1,1.52,1.52,0,0,1-1.05.38h-8a1.39,1.39,0,0,1-1-.42,1.4,1.4,0,0,1-.42-1V110a1.43,1.43,0,0,1,1.46-1.46Z"/><path class="cls-1" d="M201.1,125.52a10,10,0,0,1-3-.42,7.17,7.17,0,0,1-2.56-1.47,1.93,1.93,0,0,1-.48-.6,1.51,1.51,0,0,1-.17-.67,1.38,1.38,0,0,1,.39-1,1.33,1.33,0,0,1,1-.42,1.28,1.28,0,0,1,.81.29,7.62,7.62,0,0,0,1.81,1.12,5.57,5.57,0,0,0,2.21.39,4.5,4.5,0,0,0,1.63-.28,3.18,3.18,0,0,0,1.2-.74,1.49,1.49,0,0,0,.45-1.06,1.83,1.83,0,0,0-.43-1.23,3.27,3.27,0,0,0-1.32-.84,9.78,9.78,0,0,0-2.25-.54,10.42,10.42,0,0,1-2.27-.59,5.41,5.41,0,0,1-1.64-1,4,4,0,0,1-1-1.44,4.78,4.78,0,0,1-.34-1.86,4.41,4.41,0,0,1,.8-2.65,5.08,5.08,0,0,1,2.17-1.68,7.78,7.78,0,0,1,3-.57,8.65,8.65,0,0,1,2.88.46,6.86,6.86,0,0,1,2.17,1.19,1.6,1.6,0,0,1,.69,1.27,1.34,1.34,0,0,1-.41,1,1.29,1.29,0,0,1-1,.43,1.08,1.08,0,0,1-.65-.22,4.36,4.36,0,0,0-1-.63,9.55,9.55,0,0,0-1.36-.51,5.27,5.27,0,0,0-3.08.06,2.43,2.43,0,0,0-1.06.72,1.65,1.65,0,0,0-.36,1,1.71,1.71,0,0,0,.42,1.19,2.81,2.81,0,0,0,1.21.74,13.46,13.46,0,0,0,1.89.49,20.21,20.21,0,0,1,2.52.62,5.81,5.81,0,0,1,1.81.93,3.43,3.43,0,0,1,1.08,1.41,5.46,5.46,0,0,1,.35,2.07,4.24,4.24,0,0,1-.86,2.68,5.51,5.51,0,0,1-2.26,1.72A7.59,7.59,0,0,1,201.1,125.52Z"/><path class="cls-1" d="M217.09,111.28a1.51,1.51,0,0,1-1-.38,1.31,1.31,0,0,1-.42-1,1.26,1.26,0,0,1,.42-1,1.51,1.51,0,0,1,1-.37h10.63a1.47,1.47,0,0,1,1,.38,1.31,1.31,0,0,1,.42,1,1.26,1.26,0,0,1-.42,1,1.51,1.51,0,0,1-1,.37Zm5.29,14a1.51,1.51,0,0,1-1.1-.42,1.37,1.37,0,0,1-.43-1V109.94H224v13.88a1.38,1.38,0,0,1-.44,1A1.61,1.61,0,0,1,222.38,125.28Z"/><path class="cls-1" d="M233.15,108.53h8a1.48,1.48,0,0,1,1,.39,1.33,1.33,0,0,1,.42,1,1.24,1.24,0,0,1-.42,1,1.51,1.51,0,0,1-1,.37h-6.7l.21-.41v4.67l-.19-.19h5.6a1.46,1.46,0,0,1,1,.39,1.36,1.36,0,0,1,.42,1,1.24,1.24,0,0,1-.42,1,1.49,1.49,0,0,1-1,.37h-5.53l.12-.19v4.83l-.19-.21h6.68a1.42,1.42,0,0,1,1,.42,1.33,1.33,0,0,1,.42,1,1.27,1.27,0,0,1-.42,1,1.51,1.51,0,0,1-1,.38h-8a1.42,1.42,0,0,1-1-.42,1.4,1.4,0,0,1-.42-1V110a1.39,1.39,0,0,1,.42-1A1.42,1.42,0,0,1,233.15,108.53Z"/><path class="cls-1" d="M247.11,125.28a1.87,1.87,0,0,1-1.2-.42,1.28,1.28,0,0,1-.53-1V110a1.39,1.39,0,0,1,.42-1,1.42,1.42,0,0,1,1-.42h6.9a4.5,4.5,0,0,1,2.33.65,5,5,0,0,1,1.76,1.82,5.34,5.34,0,0,1,.67,2.67,4.36,4.36,0,0,1-.37,1.77,5.36,5.36,0,0,1-1,1.56,4.87,4.87,0,0,1-1.42,1.08l0-.55a4.08,4.08,0,0,1,1.12.85,4,4,0,0,1,.69,1.05,3.47,3.47,0,0,1,.3,1.21c.06.4.11.75.13,1a3.12,3.12,0,0,0,.14.77,1,1,0,0,0,.42.48,1.33,1.33,0,0,1,.66.89,1.11,1.11,0,0,1-.27,1,1.19,1.19,0,0,1-.67.4,1.89,1.89,0,0,1-.82,0,2.49,2.49,0,0,1-.67-.23,3.37,3.37,0,0,1-.81-.7,3.64,3.64,0,0,1-.66-1.26,6.83,6.83,0,0,1-.25-2,1.86,1.86,0,0,0-.15-.75,1.61,1.61,0,0,0-1.07-1,3.05,3.05,0,0,0-1-.13H248l.35-.55v5.19a1.62,1.62,0,0,1-.33,1A1.13,1.13,0,0,1,247.11,125.28Zm.93-8.57h5.58a1.21,1.21,0,0,0,.83-.39,2.93,2.93,0,0,0,.67-1.08,4,4,0,0,0,.27-1.5,2.69,2.69,0,0,0-.57-1.75,1.53,1.53,0,0,0-1.2-.71h-5.53l.28-.77v6.78Z"/><path class="cls-1" d="M263.33,108.5a1.62,1.62,0,0,1,.71.18,1.38,1.38,0,0,1,.56.47l5.82,8.95-1.2,0,6-8.9a1.39,1.39,0,0,1,1.17-.65,1.49,1.49,0,0,1,1,.41,1.32,1.32,0,0,1,.46,1v13.86a1.42,1.42,0,0,1-1.49,1.46,1.49,1.49,0,0,1-1.09-.42,1.43,1.43,0,0,1-.41-1V112.55l.93.21-4.88,7.45a2.39,2.39,0,0,1-.54.45,1.09,1.09,0,0,1-.66.17,1,1,0,0,1-.63-.17,2,2,0,0,1-.54-.45L264,113l.62-1.27v12.11a1.46,1.46,0,0,1-.39,1,1.28,1.28,0,0,1-1,.42,1.26,1.26,0,0,1-1-.42,1.45,1.45,0,0,1-.38-1V110a1.37,1.37,0,0,1,.44-1A1.49,1.49,0,0,1,263.33,108.5Z"/><path class="cls-1" d="M282.89,108.53h8a1.48,1.48,0,0,1,1,.39,1.33,1.33,0,0,1,.42,1,1.24,1.24,0,0,1-.42,1,1.51,1.51,0,0,1-1,.37H284.2l.22-.41v4.67l-.19-.19h5.6a1.48,1.48,0,0,1,1,.39,1.36,1.36,0,0,1,.42,1,1.24,1.24,0,0,1-.42,1,1.51,1.51,0,0,1-1,.37H284.3l.12-.19v4.83l-.19-.21h6.68a1.42,1.42,0,0,1,1,.42,1.33,1.33,0,0,1,.42,1,1.27,1.27,0,0,1-.42,1,1.51,1.51,0,0,1-1,.38h-8a1.43,1.43,0,0,1-1.46-1.46V110a1.39,1.39,0,0,1,.42-1A1.4,1.4,0,0,1,282.89,108.53Zm4.09-.91a1.07,1.07,0,0,1-.73-.24.8.8,0,0,1-.27-.62.64.64,0,0,1,.08-.33,1.65,1.65,0,0,1,.25-.32l2.06-1.82a3.39,3.39,0,0,1,.56-.37,1.35,1.35,0,0,1,.61-.16,1.51,1.51,0,0,1,.84.31,1,1,0,0,1,.43.87,1.27,1.27,0,0,1-.23.7,1.69,1.69,0,0,1-.66.57l-2.39,1.26a.56.56,0,0,1-.29.12Z"/><path class="cls-1" d="M296.6,125.28a1.42,1.42,0,0,1-1.07-.42,1.39,1.39,0,0,1-.41-1V110a1.36,1.36,0,0,1,.43-1,1.51,1.51,0,0,1,1.1-.42,1.41,1.41,0,0,1,1.07.42,1.44,1.44,0,0,1,.39,1v13.83a1.42,1.42,0,0,1-1.51,1.46Zm10.34-16.87a1.16,1.16,0,0,1,.95.46,1.56,1.56,0,0,1,.37.95,1.28,1.28,0,0,1-.43.93l-10,9.6-.12-3.42,8.09-8A1.64,1.64,0,0,1,306.94,108.41Zm-.28,16.87a1.27,1.27,0,0,1-1.08-.55l-5.53-7.28,2.18-2.22,5.72,7.56a1.65,1.65,0,0,1,.33,1,1.33,1.33,0,0,1-.5,1.09A1.7,1.7,0,0,1,306.66,125.28Z"/><path class="cls-1" d="M312.26,108.53h8a1.48,1.48,0,0,1,1.05.39,1.36,1.36,0,0,1,.41,1,1.26,1.26,0,0,1-.41,1,1.51,1.51,0,0,1-1.05.37h-6.7l.22-.41v4.67l-.19-.19h5.6a1.48,1.48,0,0,1,1,.39,1.36,1.36,0,0,1,.42,1,1.24,1.24,0,0,1-.42,1,1.51,1.51,0,0,1-1,.37h-5.53l.12-.19v4.83l-.19-.21h6.67a1.42,1.42,0,0,1,1.05.42,1.36,1.36,0,0,1,.41,1,1.3,1.3,0,0,1-.41,1,1.52,1.52,0,0,1-1.05.38h-8a1.42,1.42,0,0,1-1.46-1.46V110a1.42,1.42,0,0,1,1.46-1.46Z"/><path class="cls-1" d="M326,125.28a1.45,1.45,0,0,1-1.08-.42,1.43,1.43,0,0,1-.4-1V110a1.36,1.36,0,0,1,.43-1,1.51,1.51,0,0,1,1.1-.42,1.39,1.39,0,0,1,1.06.42,1.41,1.41,0,0,1,.4,1v13.83a1.43,1.43,0,0,1-.41,1A1.46,1.46,0,0,1,326,125.28Zm10.34-16.87a1.17,1.17,0,0,1,.95.46,1.56,1.56,0,0,1,.37.95,1.32,1.32,0,0,1-.43.93l-10,9.6-.12-3.42,8.09-8A1.63,1.63,0,0,1,336.31,108.41ZM336,125.28a1.26,1.26,0,0,1-1.07-.55l-5.53-7.28,2.18-2.22,5.72,7.56a1.65,1.65,0,0,1,.33,1,1.36,1.36,0,0,1-.5,1.09A1.72,1.72,0,0,1,336,125.28Z"/><path class="cls-1" d="M352.25,125.52a10,10,0,0,1-3-.42,7.29,7.29,0,0,1-2.57-1.47,2,2,0,0,1-.47-.6,1.4,1.4,0,0,1,.22-1.64,1.33,1.33,0,0,1,1-.42,1.28,1.28,0,0,1,.81.29,7.62,7.62,0,0,0,1.81,1.12,5.53,5.53,0,0,0,2.21.39,4.54,4.54,0,0,0,1.63-.28,3.26,3.26,0,0,0,1.2-.74,1.49,1.49,0,0,0,.45-1.06,1.83,1.83,0,0,0-.43-1.23,3.34,3.34,0,0,0-1.32-.84,9.78,9.78,0,0,0-2.25-.54,10.27,10.27,0,0,1-2.27-.59,5.41,5.41,0,0,1-1.64-1,4,4,0,0,1-1-1.44,4.78,4.78,0,0,1-.34-1.86,4.41,4.41,0,0,1,.8-2.65,5.08,5.08,0,0,1,2.17-1.68,7.74,7.74,0,0,1,3-.57,8.7,8.7,0,0,1,2.88.46,6.86,6.86,0,0,1,2.17,1.19,1.6,1.6,0,0,1,.69,1.27,1.39,1.39,0,0,1-.41,1,1.29,1.29,0,0,1-.95.43,1.08,1.08,0,0,1-.65-.22,4.58,4.58,0,0,0-1-.63,10,10,0,0,0-1.36-.51,5.27,5.27,0,0,0-3.08.06,2.37,2.37,0,0,0-1.06.72,1.65,1.65,0,0,0-.36,1,1.71,1.71,0,0,0,.42,1.19,2.77,2.77,0,0,0,1.2.74,14.24,14.24,0,0,0,1.89.49,20,20,0,0,1,2.53.62A5.81,5.81,0,0,1,357,117a3.4,3.4,0,0,1,1.07,1.41,5.26,5.26,0,0,1,.36,2.07,4.24,4.24,0,0,1-.86,2.68,5.51,5.51,0,0,1-2.26,1.72A7.59,7.59,0,0,1,352.25,125.52Z"/><path class="cls-1" d="M372.48,108.53a1.71,1.71,0,0,1,1,.38,1.23,1.23,0,0,1,.51,1,1.57,1.57,0,0,1-.33.91l-9.17,11.77-.29-.09h8a1.51,1.51,0,0,1,1,.37,1.26,1.26,0,0,1,.42,1,1.33,1.33,0,0,1-.42,1,1.48,1.48,0,0,1-1,.39H361.73a1.52,1.52,0,0,1-1.08-.44,1.35,1.35,0,0,1-.45-1,1.54,1.54,0,0,1,.33-.91l9.19-11.82.22.14h-7.25a1.48,1.48,0,0,1-1-.38,1.31,1.31,0,0,1-.42-1,1.26,1.26,0,0,1,.42-1,1.47,1.47,0,0,1,1-.37Z"/><path class="cls-1" d="M382.82,112.28l-5.17,12.16a1.47,1.47,0,0,1-.52.71,1.23,1.23,0,0,1-.75.25,1.21,1.21,0,0,1-1-.36,1.28,1.28,0,0,1-.31-.88,1.51,1.51,0,0,1,.07-.46l6-14.31a1.51,1.51,0,0,1,.59-.74,1.23,1.23,0,0,1,.85-.22,1.42,1.42,0,0,1,1.34,1l5.89,14a1.63,1.63,0,0,1,.12.58,1.33,1.33,0,0,1-.42,1,1.37,1.37,0,0,1-.92.38,1.28,1.28,0,0,1-.78-.26,1.8,1.8,0,0,1-.54-.72l-5.15-12Zm-4.43,9.24,1.32-2.75h6.46l.45,2.75Z"/><path class="cls-1" d="M393.44,125.28a1.42,1.42,0,0,1-1.07-.42,1.39,1.39,0,0,1-.41-1V110a1.36,1.36,0,0,1,.43-1,1.51,1.51,0,0,1,1.1-.42,1.41,1.41,0,0,1,1.07.42,1.44,1.44,0,0,1,.39,1v13.83a1.39,1.39,0,0,1-.41,1A1.45,1.45,0,0,1,393.44,125.28Zm10.34-16.87a1.16,1.16,0,0,1,1,.46,1.5,1.5,0,0,1,.37.95,1.28,1.28,0,0,1-.43.93l-10,9.6-.12-3.42,8.09-8A1.64,1.64,0,0,1,403.78,108.41Zm-.28,16.87a1.27,1.27,0,0,1-1.08-.55l-5.53-7.28,2.18-2.22,5.72,7.56a1.65,1.65,0,0,1,.33,1,1.33,1.33,0,0,1-.5,1.09A1.7,1.7,0,0,1,403.5,125.28Z"/><path class="cls-1" d="M409.1,108.53h8a1.48,1.48,0,0,1,1,.39,1.33,1.33,0,0,1,.42,1,1.24,1.24,0,0,1-.42,1,1.51,1.51,0,0,1-1,.37h-6.71l.22-.41v4.67l-.19-.19H416a1.48,1.48,0,0,1,1,.39,1.36,1.36,0,0,1,.42,1,1.24,1.24,0,0,1-.42,1,1.51,1.51,0,0,1-1,.37h-5.53l.12-.19v4.83l-.19-.21h6.68a1.42,1.42,0,0,1,1,.42,1.33,1.33,0,0,1,.42,1,1.27,1.27,0,0,1-.42,1,1.51,1.51,0,0,1-1,.38h-8a1.43,1.43,0,0,1-1.46-1.46V110a1.39,1.39,0,0,1,.42-1A1.4,1.4,0,0,1,409.1,108.53Zm4.09-.91a1.07,1.07,0,0,1-.73-.24.8.8,0,0,1-.28-.62.66.66,0,0,1,.09-.33,1.34,1.34,0,0,1,.25-.32l2.06-1.82a3,3,0,0,1,.56-.37,1.35,1.35,0,0,1,.61-.16,1.51,1.51,0,0,1,.84.31,1,1,0,0,1,.43.87,1.27,1.27,0,0,1-.23.7,1.69,1.69,0,0,1-.66.57l-2.39,1.26a.6.6,0,0,1-.29.12Z"/><path class="cls-1" d="M423.05,125.28a1.89,1.89,0,0,1-1.2-.42,1.27,1.27,0,0,1-.52-1V110a1.39,1.39,0,0,1,.42-1,1.4,1.4,0,0,1,1-.42h6.89a4.48,4.48,0,0,1,2.33.65,5,5,0,0,1,1.76,1.82,5.24,5.24,0,0,1,.67,2.67,4.36,4.36,0,0,1-.37,1.77,5.33,5.33,0,0,1-1,1.56,4.91,4.91,0,0,1-1.43,1.08l0-.55a4,4,0,0,1,1.11.85,3.54,3.54,0,0,1,.69,1.05,3.47,3.47,0,0,1,.3,1.21c.07.4.11.75.14,1a3.12,3.12,0,0,0,.14.77.89.89,0,0,0,.42.48,1.33,1.33,0,0,1,.66.89,1.14,1.14,0,0,1-.28,1,1.19,1.19,0,0,1-.67.4,1.84,1.84,0,0,1-.81,0,2.37,2.37,0,0,1-.67-.23,3.22,3.22,0,0,1-.82-.7,3.64,3.64,0,0,1-.66-1.26,7.17,7.17,0,0,1-.25-2,1.86,1.86,0,0,0-.14-.75,1.78,1.78,0,0,0-.41-.6,1.68,1.68,0,0,0-.67-.38,3,3,0,0,0-.95-.13H424l.36-.55v5.19a1.57,1.57,0,0,1-.34,1A1.11,1.11,0,0,1,423.05,125.28Zm.93-8.57h5.58a1.21,1.21,0,0,0,.84-.39,3.07,3.07,0,0,0,.67-1.08,4.22,4.22,0,0,0,.26-1.5,2.74,2.74,0,0,0-.56-1.75,1.56,1.56,0,0,0-1.21-.71H424l.29-.77v6.78Z"/><path class="cls-1" d="M437.8,111.28a1.52,1.52,0,0,1-1.05-.38,1.3,1.3,0,0,1-.41-1,1.26,1.26,0,0,1,.41-1,1.51,1.51,0,0,1,1.05-.37h10.62a1.45,1.45,0,0,1,1,.38,1.31,1.31,0,0,1,.42,1,1.26,1.26,0,0,1-.42,1,1.49,1.49,0,0,1-1,.37Zm5.29,14a1.53,1.53,0,0,1-1.11-.42,1.41,1.41,0,0,1-.43-1V109.94h3.12v13.88a1.36,1.36,0,0,1-.45,1A1.56,1.56,0,0,1,443.09,125.28Z"/><path class="cls-1" d="M467.81,116.9a9.19,9.19,0,0,1-.6,3.35,8.5,8.5,0,0,1-1.69,2.75,7.73,7.73,0,0,1-2.58,1.85,7.87,7.87,0,0,1-3.27.67,7.75,7.75,0,0,1-3.25-.67,7.93,7.93,0,0,1-2.58-1.85,8.48,8.48,0,0,1-1.68-2.75,9.65,9.65,0,0,1,0-6.7,8.54,8.54,0,0,1,1.68-2.74,7.81,7.81,0,0,1,5.83-2.52,7.87,7.87,0,0,1,3.27.67,7.59,7.59,0,0,1,2.58,1.85,8.57,8.57,0,0,1,1.69,2.74A9.26,9.26,0,0,1,467.81,116.9Zm-3.11,0a6.44,6.44,0,0,0-.65-2.9,5.27,5.27,0,0,0-1.77-2.07,4.81,4.81,0,0,0-5.22,0,5.26,5.26,0,0,0-1.76,2,7.06,7.06,0,0,0,0,5.83,5.25,5.25,0,0,0,1.76,2.07,4.81,4.81,0,0,0,5.22,0,5.27,5.27,0,0,0,1.77-2.07A6.48,6.48,0,0,0,464.7,116.9Zm-7.21-10.29c-.44,0-.67-.2-.67-.6a1.6,1.6,0,0,1,.29-.83l1-1.54a1.74,1.74,0,0,1,.47-.53,1.08,1.08,0,0,1,.68-.21,1.4,1.4,0,0,1,.93.35,1,1,0,0,1,.41.82.82.82,0,0,1-.11.41,1.48,1.48,0,0,1-.32.41L459,106a2.59,2.59,0,0,1-.67.46A2.23,2.23,0,0,1,457.49,106.61Zm4.36,0c-.45,0-.67-.19-.67-.57a1.59,1.59,0,0,1,.31-.86l1-1.56a1.16,1.16,0,0,1,1.12-.62,2.07,2.07,0,0,1,.88.22.81.81,0,0,1,.46.78,1,1,0,0,1-.11.47,1.38,1.38,0,0,1-.32.42l-1.2,1.12a2.3,2.3,0,0,1-.67.46A2.14,2.14,0,0,1,461.85,106.61Z"/><path class="cls-1" d="M472.05,125.28a1.42,1.42,0,0,1-1.49-1.46V110a1.39,1.39,0,0,1,.43-1,1.52,1.52,0,0,1,1.1-.42,1.39,1.39,0,0,1,1.07.42,1.44,1.44,0,0,1,.39,1v13.83a1.43,1.43,0,0,1-.4,1A1.46,1.46,0,0,1,472.05,125.28Zm10.34-16.87a1.15,1.15,0,0,1,.94.46,1.5,1.5,0,0,1,.37.95,1.28,1.28,0,0,1-.43.93l-10,9.6-.12-3.42,8.09-8A1.65,1.65,0,0,1,482.39,108.41Zm-.29,16.87a1.27,1.27,0,0,1-1.08-.55l-5.53-7.28,2.18-2.22,5.72,7.56a1.66,1.66,0,0,1,.34,1,1.34,1.34,0,0,1-.51,1.09A1.7,1.7,0,0,1,482.1,125.28Z"/><path class="cls-1" d="M486.62,111.28a1.51,1.51,0,0,1-1-.38,1.31,1.31,0,0,1-.42-1,1.26,1.26,0,0,1,.42-1,1.51,1.51,0,0,1,1-.37h10.63a1.47,1.47,0,0,1,1,.38,1.31,1.31,0,0,1,.42,1,1.26,1.26,0,0,1-.42,1,1.51,1.51,0,0,1-1,.37Zm5.29,14a1.51,1.51,0,0,1-1.1-.42,1.37,1.37,0,0,1-.43-1V109.94h3.11v13.88a1.38,1.38,0,0,1-.44,1A1.59,1.59,0,0,1,491.91,125.28Z"/><path class="cls-1" d="M516.64,116.9a9.19,9.19,0,0,1-.6,3.35,8.5,8.5,0,0,1-1.69,2.75,8,8,0,0,1-11.68,0,8.5,8.5,0,0,1-1.69-2.75,9.65,9.65,0,0,1,0-6.7,8.57,8.57,0,0,1,1.69-2.74,7.77,7.77,0,0,1,5.83-2.52,7.87,7.87,0,0,1,3.27.67,7.69,7.69,0,0,1,2.58,1.85,8.57,8.57,0,0,1,1.69,2.74A9.26,9.26,0,0,1,516.64,116.9Zm-3.11,0a6.44,6.44,0,0,0-.65-2.9,5.27,5.27,0,0,0-1.77-2.07,4.81,4.81,0,0,0-5.22,0,5.18,5.18,0,0,0-1.76,2,7.06,7.06,0,0,0,0,5.83,5.17,5.17,0,0,0,1.76,2.07,4.81,4.81,0,0,0,5.22,0,5.27,5.27,0,0,0,1.77-2.07A6.48,6.48,0,0,0,513.53,116.9Zm-7.21-10.29c-.45,0-.67-.2-.67-.6a1.6,1.6,0,0,1,.29-.83l1-1.54a1.62,1.62,0,0,1,.47-.53,1.08,1.08,0,0,1,.68-.21,1.4,1.4,0,0,1,.93.35,1.06,1.06,0,0,1,.41.82.93.93,0,0,1-.11.41,1.48,1.48,0,0,1-.32.41L507.8,106a2.3,2.3,0,0,1-.67.46A2.14,2.14,0,0,1,506.32,106.61Zm4.36,0c-.45,0-.67-.19-.67-.57a1.59,1.59,0,0,1,.31-.86l1-1.56a1.38,1.38,0,0,1,.46-.47,1.33,1.33,0,0,1,.67-.15,2,2,0,0,1,.87.22.82.82,0,0,1,.47.78,1.12,1.12,0,0,1-.11.47,1.38,1.38,0,0,1-.32.42l-1.2,1.12a2.44,2.44,0,0,1-.67.46A2.14,2.14,0,0,1,510.68,106.61Z"/><path class="cls-1" d="M528.63,122.48a1.44,1.44,0,0,1,1,.4,1.41,1.41,0,0,1,0,2,1.48,1.48,0,0,1-1,.39h-7.78a1.43,1.43,0,0,1-1.46-1.46V110a1.36,1.36,0,0,1,.43-1,1.51,1.51,0,0,1,1.1-.42,1.46,1.46,0,0,1,1,.42,1.37,1.37,0,0,1,.44,1v12.9l-.53-.41Z"/></svg>