<svg xmlns="http://www.w3.org/2000/svg" viewBox="0 0 270 71"><defs><style>.a{fill:#f85c00;}.b{fill:#fff;}</style></defs><title>problema-valaszto-20210118</title><rect class="a" x="2" y="5.35" width="266" height="59.37"/><path class="b" d="M10.06,39.26v5H7.28V30.42h5.3a5.49,5.49,0,0,1,3.76,1.22,4.43,4.43,0,0,1,0,6.41,5.53,5.53,0,0,1-3.76,1.21Zm0-2.15h2.52a2.32,2.32,0,0,0,1.76-.63,2.25,2.25,0,0,0,.6-1.61,2.33,2.33,0,0,0-.6-1.65,2.23,2.23,0,0,0-1.76-.66H10.06Z"/><path class="b" d="M22.48,38.74v5.54H19.7V30.42h4.8a5.72,5.72,0,0,1,3.7,1.08,3.64,3.64,0,0,1,1.34,3A3.1,3.1,0,0,1,29,36.36a4,4,0,0,1-1.66,1.25,3,3,0,0,1,1.77,1.21,3.8,3.8,0,0,1,.54,2.09v1a5.2,5.2,0,0,0,.15,1.21,1.69,1.69,0,0,0,.54.94v.2H27.46a1.49,1.49,0,0,1-.49-1,8,8,0,0,1-.11-1.36v-1a2.18,2.18,0,0,0-.57-1.61,2.12,2.12,0,0,0-1.6-.58Zm0-2.14h2a2.6,2.6,0,0,0,1.74-.5,1.82,1.82,0,0,0,.57-1.46,2,2,0,0,0-.57-1.51,2.32,2.32,0,0,0-1.69-.57h-2Z"/><path class="b" d="M43.34,38.6a5.83,5.83,0,0,1-1.61,4.22,5.56,5.56,0,0,1-4.19,1.66,5.53,5.53,0,0,1-4.17-1.66,5.84,5.84,0,0,1-1.6-4.22V36.1a5.88,5.88,0,0,1,1.59-4.21,5.51,5.51,0,0,1,4.16-1.67,5.6,5.6,0,0,1,4.2,1.67,5.82,5.82,0,0,1,1.62,4.21Zm-2.77-2.51a4.19,4.19,0,0,0-.81-2.66,2.69,2.69,0,0,0-2.24-1,2.59,2.59,0,0,0-2.19,1,4.25,4.25,0,0,0-.79,2.66V38.6a4.27,4.27,0,0,0,.79,2.68,2.6,2.6,0,0,0,2.21,1,2.65,2.65,0,0,0,2.23-1,4.27,4.27,0,0,0,.8-2.68Z"/><path class="b" d="M45.54,44.28V30.42h4.54a6.54,6.54,0,0,1,3.81,1,3.23,3.23,0,0,1,1.38,2.84,3,3,0,0,1-.5,1.7,3,3,0,0,1-1.45,1.14,3,3,0,0,1,2,1.12,3.37,3.37,0,0,1,.66,2.07,3.6,3.6,0,0,1-1.31,3,6,6,0,0,1-3.72,1Zm2.78-8.05h1.85a2.77,2.77,0,0,0,1.72-.46,1.57,1.57,0,0,0,.6-1.33A1.67,1.67,0,0,0,51.88,33a3,3,0,0,0-1.8-.46H48.32Zm0,1.92v4H50.9a2.59,2.59,0,0,0,1.68-.48,1.74,1.74,0,0,0,.58-1.42,2.06,2.06,0,0,0-.57-1.56,2.43,2.43,0,0,0-1.72-.54Z"/><path class="b" d="M60.74,42.15H67v2.13H58V30.42h2.78Z"/><path class="b" d="M76.71,38.19H71.57v4h6.12v2.13h-8.9V30.42h8.88v2.14h-6.1v3.49h5.14ZM73.79,26.52h3.1v.06l-2.63,2.47H71.9Z"/><path class="b" d="M86.8,40.64h.06l3.56-10.22h3.63V44.28H91.27V34.82h-.06l-3.42,9.47H85.9l-3.43-9.49h0v9.48H79.64V30.42h3.64Z"/><path class="b" d="M104,41.29H99.5l-.93,3h-2.9l4.67-13.86h2.85l4.65,13.86h-2.9Zm-3.81-2.18h3.13l-1.53-4.88h-.06Z"/><path class="b" d="M117.83,38.49h-1v5.79H114V30.42h2.78v5.67h.78l3.8-5.67h3.44L120,36.87l5.17,7.41h-3.54Z"/><path class="b" d="M129.43,44.28h-2.78V30.42h2.78Z"/><path class="b" d="M136.9,40.52l.17.76h.06l.16-.73,3-10.13h2.93l-4.71,13.86h-2.86L131,30.42h2.93Z"/><path class="b" d="M151.09,41.29H146.6l-.93,3h-2.91l4.68-13.86h2.84l4.66,13.86H152Zm-3.8-2.18h3.13l-1.54-4.88h0Zm2.07-12.59h3.09l0,.06-2.63,2.47h-2.38Z"/><path class="b" d="M159.05,42.15h6.21v2.13h-9V30.42h2.78Z"/><path class="b" d="M174.51,41.29H170l-.93,3h-2.91l4.68-13.86h2.84l4.66,13.86h-2.91Zm-3.81-2.18h3.14l-1.54-4.88h-.05Z"/><path class="b" d="M186.92,40.66a1.62,1.62,0,0,0-.56-1.28,5.52,5.52,0,0,0-2-.91,11.14,11.14,0,0,1-3.64-1.71,3.2,3.2,0,0,1-1.24-2.67,3.38,3.38,0,0,1,1.4-2.79,6.48,6.48,0,0,1,7.28.08,3.63,3.63,0,0,1,1.35,3.05v.06h-2.7a2,2,0,0,0-.63-1.6,2.56,2.56,0,0,0-1.76-.56,2.35,2.35,0,0,0-1.59.5,1.62,1.62,0,0,0-.56,1.27,1.36,1.36,0,0,0,.61,1.15,8.27,8.27,0,0,0,2.1,1,8.94,8.94,0,0,1,3.49,1.69,3.46,3.46,0,0,1,1.2,2.75,3.31,3.31,0,0,1-1.39,2.8,6,6,0,0,1-3.68,1,6.58,6.58,0,0,1-3.84-1.11,3.67,3.67,0,0,1-1.56-3.32l0-.06H182a2.19,2.19,0,0,0,.72,1.81,3.09,3.09,0,0,0,2,.58,2.67,2.67,0,0,0,1.7-.47A1.51,1.51,0,0,0,186.92,40.66Z"/><path class="b" d="M194.47,42.15h6.36v2.13H191.2V42.83l6.17-10.27h-6.16V30.42h9.46v1.39Z"/><path class="b" d="M212.48,32.56h-4V44.28h-2.78V32.56h-3.91V30.42h10.65Z"/><path class="b" d="M220.19,41.29H215.7l-.94,3h-2.9l4.67-13.86h2.85L224,44.28h-2.91Zm-3.81-2.18h3.13L218,34.23h-.06Zm2.08-12.59h3.09l0,.06-2.64,2.47h-2.37Z"/><path class="b" d="M232.59,40.66a1.61,1.61,0,0,0-.55-1.28,5.7,5.7,0,0,0-2-.91,11.14,11.14,0,0,1-3.64-1.71,3.2,3.2,0,0,1-1.24-2.67,3.35,3.35,0,0,1,1.4-2.79,6.46,6.46,0,0,1,7.27.08,3.64,3.64,0,0,1,1.36,3.05l0,.06h-2.69a2,2,0,0,0-.63-1.6,2.58,2.58,0,0,0-1.76-.56,2.31,2.31,0,0,0-1.59.5A1.6,1.6,0,0,0,228,34.1a1.39,1.39,0,0,0,.61,1.15,8.38,8.38,0,0,0,2.11,1,9,9,0,0,1,3.48,1.69,3.46,3.46,0,0,1,1.2,2.75,3.28,3.28,0,0,1-1.39,2.8,6,6,0,0,1-3.67,1,6.58,6.58,0,0,1-3.84-1.11,3.67,3.67,0,0,1-1.56-3.32l0-.06h2.69a2.2,2.2,0,0,0,.73,1.81,3.07,3.07,0,0,0,2,.58,2.69,2.69,0,0,0,1.7-.47A1.5,1.5,0,0,0,232.59,40.66Z"/><path class="b" d="M244.64,41.29h-4.49l-.93,3h-2.91L241,30.42h2.85l4.65,13.86h-2.9Zm-3.8-2.18H244l-1.53-4.88h-.06Z"/><path class="b" d="M260.64,37.51v-.08l-5.58-2.69V31.23l8.3,4.78v3l-8.3,4.79V40.24Z"/></svg>